<svg xmlns="http://www.w3.org/2000/svg" viewBox="0 0 360 360">
  <rect width="100%" height="100%" fill="#101820"/>
  <line x1="5" y1="120" x2="355" y2="120" stroke-width="8" stroke="#F2AA4C" />
  <line x1="5" y1="240" x2="355" y2="240" stroke-width="8" stroke="#F2AA4C" />
  <line x1="120" y1="5" x2="120" y2="355" stroke-width="8" stroke="#F2AA4C" />
  <line x1="240" y1="5" x2="240" y2="355" stroke-width="8" stroke="#F2AA4C" />

  <line x1="20" y1="20" x2="100" y2="100" stroke-width="10" stroke="#F2AA4C"/>
  <line x1="100" y1="20" x2="20" y2="100" stroke-width="10" stroke="#F2AA4C" />
  <circle cx="180" cy="60" r="40" stroke="#F2AA4C" fill-opacity="0" stroke-width="10"/>
  <circle cx="300" cy="60" r="40" stroke="#F2AA4C" fill-opacity="0" stroke-width="10"/>
  <circle cx="60" cy="180" r="40" stroke="#F2AA4C" fill-opacity="0" stroke-width="10"/>
  <line x1="140" y1="140" x2="220" y2="220" stroke-width="10" stroke="#F2AA4C"/>
  <line x1="220" y1="140" x2="140" y2="220" stroke-width="10" stroke="#F2AA4C" />
  <line x1="260" y1="140" x2="340" y2="220" stroke-width="10" stroke="#F2AA4C"/>
  <line x1="340" y1="140" x2="260" y2="220" stroke-width="10" stroke="#F2AA4C" />
  <line x1="20" y1="260" x2="100" y2="340" stroke-width="10" stroke="#F2AA4C"/>
  <line x1="100" y1="260" x2="20" y2="340" stroke-width="10" stroke="#F2AA4C" />
  <circle cx="180" cy="300" r="40" stroke="#F2AA4C" fill-opacity="0" stroke-width="10"/>
  <circle cx="300" cy="300" r="40" stroke="#F2AA4C" fill-opacity="0" stroke-width="10"/>
</svg>
